<svg width="290" height="70" viewBox="0 0 290 70" fill="none" xmlns="http://www.w3.org/2000/svg">
<g clip-path="url(#clip0_1_7)">
<path d="M0.0446777 2.86511H6.64729V20.4038H9.88535V2.86511H20.1909V49.014H9.88535V29.8119H6.64729V49.014H0.0446777V2.86511Z" fill="#323232"/>
<path d="M59.7401 25.9095C59.7401 40.7728 54.6806 50.1019 39.9544 50.1019C26.569 50.1019 21.5696 40.9341 21.5696 25.8052C21.5696 11.606 26.569 2.24217 40.5805 2.24217C54.5921 2.24217 59.7401 11.7736 59.7401 25.9127V25.9095ZM35.5369 25.7166C35.5369 36.3581 36.1535 39.4383 39.1829 39.4383C42.2122 39.4383 43.1925 36.4783 43.1925 25.6028C43.1925 15.5274 42.247 12.9374 39.1481 12.9374C36.3084 12.9374 35.5337 15.4578 35.5337 25.7135L35.5369 25.7166Z" fill="#323232"/>
<path d="M70.9374 14.8411H59.3354V2.87144H102.907V14.8443H89.7808V49.0203H70.9374V14.8411Z" fill="#323232"/>
<path d="M122.674 34.8624C123.126 36.8073 124.283 39.021 127.758 39.021C130.399 39.021 131.815 37.9489 131.815 36.3361C131.815 34.7233 131.363 33.4488 123.961 32.0416C106.192 28.6862 104.453 21.9124 104.453 15.8754C104.453 7.15665 111.919 0.582028 127.053 0.582028C140.894 0.582028 150.466 5.74938 151.174 15.2018H132.138C131.752 13.1873 130.721 11.6473 127.695 11.6473C125.507 11.6473 124.413 12.5201 124.413 13.8641C124.413 15.4738 126.345 16.277 131.37 17.2194C147.98 20.2395 152.42 26.1405 152.42 33.588C152.42 43.8531 143.278 50.2222 128.147 50.2222C111.666 50.2222 103.767 43.5147 102.417 34.8624H122.677H122.674Z" fill="#323232"/>
<path d="M170.252 41.5729L168.965 49.0203H150.567L163.38 2.87144H188.899L200.349 49.0203H182.179L180.794 41.5729H170.242H170.245H170.252ZM178.331 29.1636C177.708 25.5711 176.171 18.6328 175.403 13.535H175.627C174.853 18.8352 173.667 24.556 172.813 29.1636H178.337H178.334H178.331Z" fill="#323232"/>
<path d="M216.682 2.86511V35.5675C216.682 38.0911 219.05 39.4287 221.197 39.4287C223.202 39.4287 225.583 38.1606 225.583 35.5675V2.86511H240.999V33.7048C240.999 45.7915 231.319 50.3264 220.448 50.3264C209.576 50.3264 199.669 45.4152 199.669 33.6068V2.86511H216.682Z" fill="#323232"/>
<path d="M272.741 33.1357V33.6448C272.741 42.5659 269.98 50.3296 259.169 50.3296C249.429 50.3296 243.111 44.7891 243.111 27.7406V24.7648C243.111 7.18819 250.918 1.70776 259.466 1.70776C270.059 1.70776 272.741 10.2336 272.741 18.0826V18.6772H260.405V17.9214C260.405 13.9241 259.842 12.3935 258.881 12.3935C258.097 12.3935 256.854 14.0095 256.854 24.36V27.7027C256.854 38.5971 257.926 40.0645 258.862 40.0645C259.893 40.0645 260.459 38.3663 260.459 33.9389V33.1357H272.744H272.741Z" fill="#323232"/>
<path d="M288.346 28.4236H282.733V40.2288H289.955L288.798 49.0171H274.565V2.86511H288.735V11.6534H282.733V19.6385H288.346V28.4268V28.4236Z" fill="#323232"/>
<path d="M2.85577 58.6245H4.86691L7.50099 65.9165H5.86615L5.39815 64.5504H2.32452L1.85652 65.9165H0.22168L2.85577 58.6245ZM5.00288 63.3962L3.90877 60.2183H3.8139L2.71979 63.3962H4.99972H5.00288Z" fill="#323232"/>
<path d="M10.4575 62.2705C10.4575 59.9147 11.7919 58.5297 13.9043 58.5297C15.498 58.5297 16.7787 59.3423 16.9241 61.1543H15.4031C15.1944 60.2467 14.5999 59.8736 13.8505 59.8736C12.5793 59.8736 12.0481 60.9266 12.0481 62.2705C12.0481 63.6144 12.5698 64.6769 13.8505 64.6769C14.5999 64.6769 15.1944 64.3006 15.4031 63.3867H16.9241C16.7787 65.2113 15.498 66.0208 13.8821 66.0208C11.7888 66.0208 10.4543 64.6358 10.4543 62.2705H10.4575Z" fill="#323232"/>
<path d="M17.623 62.2705C17.623 60.0317 18.9986 58.5297 21.1014 58.5297C23.2043 58.5297 24.5798 60.0285 24.5798 62.2705C24.5798 64.5125 23.2043 66.0208 21.1014 66.0208C18.9986 66.0208 17.623 64.4998 17.623 62.2705ZM21.1014 64.6769C22.2999 64.6769 22.9766 63.7188 22.9766 62.2705C22.9766 60.8222 22.2999 59.8736 21.1014 59.8736C19.903 59.8736 19.2263 60.8096 19.2263 62.2705C19.2263 63.7314 19.903 64.6769 21.1014 64.6769Z" fill="#323232"/>
<path d="M25.2217 58.6245H26.847L29.7847 63.4152H29.8163V58.6245H31.3784V65.9165H29.6898L26.8154 61.2175H26.7838V65.9165H25.2217V58.6245Z" fill="#323232"/>
<path d="M32.4158 58.6245H37.2381V59.9779H33.9779V61.6855H36.6752V62.9472H33.9779V65.9165H32.4158V58.6245Z" fill="#323232"/>
<path d="M38.0918 58.6245H43.0722V59.9779H39.6539V61.6128H42.7591V62.8302H39.6539V64.5599H43.1734V65.9133H38.0886V58.6214L38.0918 58.6245Z" fill="#323232"/>
<path d="M43.9956 58.6245H46.9427C48.8812 58.6245 49.7255 59.6364 49.7255 61.0626C49.7255 62.0934 49.2764 62.9282 48.2677 63.2919L49.7982 65.9165H48.255L46.87 63.4879H45.5577V65.9165H43.9956V58.6245ZM46.8922 62.1345C47.7459 62.1345 48.1222 61.7076 48.1222 61.0626C48.1222 60.4175 47.7459 59.9779 46.8922 59.9779H45.5577V62.1345H46.8922Z" fill="#323232"/>
<path d="M50.6204 58.6245H55.6008V59.9779H52.1825V61.6128H55.2877V62.8302H52.1825V64.5599H55.702V65.9133H50.6172V58.6214L50.6204 58.6245Z" fill="#323232"/>
<path d="M56.5273 58.6245H58.1527L61.0904 63.4152H61.122V58.6245H62.6841V65.9165H60.9955L58.1211 61.2175H58.0895V65.9165H56.5273V58.6245Z" fill="#323232"/>
<path d="M63.6074 62.2705C63.6074 59.9147 64.9418 58.5297 67.0542 58.5297C68.6479 58.5297 69.9286 59.3423 70.074 61.1543H68.553C68.3443 60.2467 67.7498 59.8736 67.0004 59.8736C65.7292 59.8736 65.198 60.9266 65.198 62.2705C65.198 63.6144 65.7197 64.6769 67.0004 64.6769C67.7498 64.6769 68.3443 64.3006 68.553 63.3867H70.074C69.9286 65.2113 68.6479 66.0208 67.032 66.0208C64.9387 66.0208 63.6042 64.6358 63.6042 62.2705H63.6074Z" fill="#323232"/>
<path d="M70.9309 58.6245H75.9113V59.9779H72.493V61.6128H75.5983V62.8302H72.493V64.5599H76.0125V65.9133H70.9277V58.6214L70.9309 58.6245Z" fill="#323232"/>
<path d="M78.7224 58.6245H81.6822C83.3076 58.6245 84.0475 59.3423 84.0475 60.4491C84.0475 61.2396 83.6839 61.6887 82.9945 61.9069C84.0791 62.1978 84.5471 62.8745 84.5471 63.782C84.5471 64.9583 83.7345 65.9165 81.8087 65.9165H78.7256V58.6245H78.7224ZM81.619 61.5843C82.087 61.5843 82.4822 61.3345 82.4822 60.74C82.4822 60.1455 82.087 59.9368 81.619 59.9368H80.2845V61.5843H81.619ZM81.7549 64.6042C82.6309 64.6042 82.9313 64.1362 82.9313 63.6049C82.9313 63.0737 82.6277 62.5741 81.7549 62.5741H80.2845V64.6042H81.7549Z" fill="#323232"/>
<path d="M86.9727 63.2381L84.3386 58.6245H86.1094L87.7759 61.7298L89.4518 58.6245H91.2227L88.5886 63.2381V65.9165H86.9727V63.2381Z" fill="#323232"/>
<path d="M108.437 65.9892V56.4395H109.921V60.2024C110.389 59.5036 111.091 59.1621 112.023 59.1558C112.82 59.1558 113.437 59.3929 113.87 59.8641C114.306 60.3353 114.525 60.993 114.525 61.8341V65.986H113.042V62.0397C113.042 60.9487 112.555 60.4048 111.587 60.4048C111.1 60.4048 110.702 60.5534 110.392 60.8412C110.082 61.1353 109.924 61.5495 109.924 62.0808V65.9829H108.441L108.434 65.9924L108.437 65.9892Z" fill="#323232"/>
<path d="M121.535 65.167C120.877 65.8248 120.046 66.1536 119.05 66.1536C118.054 66.1536 117.222 65.8248 116.555 65.167C115.891 64.5093 115.559 63.6682 115.559 62.6531C115.559 61.6381 115.894 60.8001 116.555 60.1487C117.219 59.4941 118.047 59.1653 119.05 59.1653C120.052 59.1653 120.877 59.4941 121.535 60.1487C122.193 60.8033 122.522 61.6381 122.522 62.6531C122.522 63.6682 122.193 64.5093 121.535 65.167ZM117.639 64.3259C117.993 64.7402 118.458 64.9457 119.05 64.9457C119.641 64.9457 120.106 64.7402 120.46 64.3259C120.814 63.9117 120.991 63.352 120.991 62.65C120.991 61.948 120.814 61.4009 120.457 60.9898C120.099 60.5756 119.631 60.37 119.056 60.37C118.48 60.37 118 60.5724 117.646 60.9803C117.291 61.3883 117.114 61.9448 117.114 62.65C117.114 63.3551 117.291 63.9117 117.646 64.3259H117.639Z" fill="#323232"/>
<path d="M125.959 66.1536C124.593 66.1536 123.91 65.4232 123.91 63.9591V60.5787H122.879V59.3265H123.951L124.296 57.3628H125.412V59.3265H128.065V60.5787H125.412V63.918C125.412 64.5315 125.636 64.8382 126.085 64.8382C126.509 64.8382 126.885 64.4556 127.224 63.684L128.378 64.2722C127.809 65.5244 127.002 66.1536 125.962 66.1536H125.959Z" fill="#323232"/>
<path d="M128.852 69.0375C128.195 69.0375 127.648 68.8573 127.218 68.4873L127.768 67.3173C128.033 67.6272 128.324 67.7853 128.631 67.7853C129.045 67.7853 129.251 67.5197 129.251 66.9885V59.3234H130.734V67.0169C130.734 67.7284 130.557 68.2438 130.203 68.5632C129.848 68.8763 129.396 69.0344 128.852 69.0407V69.0344V69.0375ZM129.991 58.2008C129.744 58.2103 129.51 58.1217 129.333 57.9541C129.251 57.8751 129.181 57.7771 129.137 57.6632C129.093 57.5557 129.067 57.4387 129.074 57.3186C129.074 57.2016 129.093 57.0814 129.137 56.9707C129.181 56.8632 129.251 56.7588 129.333 56.6798C129.513 56.5185 129.747 56.4237 129.991 56.4237C130.234 56.4237 130.468 56.5122 130.648 56.6798C130.737 56.762 130.807 56.86 130.851 56.9707C130.895 57.0814 130.92 57.2016 130.914 57.3186C130.914 57.4356 130.895 57.5557 130.845 57.6569C130.794 57.7581 130.731 57.8624 130.642 57.9415C130.554 58.0237 130.456 58.0901 130.342 58.1344C130.228 58.1787 130.111 58.1976 129.988 58.1976L129.991 58.2008Z" fill="#323232"/>
<path d="M134.418 66.1536C133.656 66.1536 133.042 65.9608 132.571 65.5845C132.1 65.205 131.863 64.6959 131.863 64.0508C131.863 63.4658 132.109 62.9693 132.6 62.5614C133.09 62.1535 133.706 61.9511 134.446 61.9511C135.186 61.9511 135.847 62.1915 136.372 62.6784V61.8689C136.372 61.3914 136.249 61.0246 136.008 60.7622C135.768 60.5029 135.42 60.37 134.971 60.37C134.064 60.37 133.501 60.8317 133.283 61.7551L131.923 61.4642C132.103 60.7527 132.467 60.1866 133.007 59.7756C133.548 59.3613 134.222 59.1558 135.028 59.1558C135.907 59.1558 136.6 59.3866 137.112 59.8483C137.618 60.31 137.874 60.9867 137.874 61.8721V65.9797H136.429V65.1386C135.942 65.8058 135.275 66.141 134.424 66.141L134.418 66.1505V66.1536ZM134.693 65.0532C135.351 65.0532 135.91 64.7243 136.369 64.0666V63.8611C135.914 63.3109 135.351 63.0357 134.693 63.0357C134.31 63.0357 133.994 63.1306 133.76 63.3172C133.646 63.3994 133.558 63.5101 133.494 63.6366C133.431 63.763 133.4 63.9022 133.4 64.0382C133.4 64.1741 133.425 64.3196 133.488 64.4461C133.548 64.5726 133.64 64.6864 133.754 64.7718C133.991 64.9583 134.298 65.0532 134.696 65.0532L134.69 65.0595L134.693 65.0532Z" fill="#323232"/>
<path d="M139.31 65.9892V59.3265H140.755V60.4807C141.125 59.6396 141.751 59.219 142.652 59.219C143.183 59.219 143.626 59.3898 143.967 59.7408C144.315 60.0886 144.489 60.5566 144.489 61.1416C144.489 61.4894 144.426 61.8404 144.312 62.1725L142.952 62.0333C142.981 61.8531 142.997 61.6697 143.006 61.4831C143.006 60.7938 142.722 60.4523 142.156 60.4523C141.773 60.4523 141.447 60.6546 141.188 61.0626C140.929 61.4705 140.796 62.0049 140.796 62.6784V65.9892H139.313H139.31Z" fill="#323232"/>
<path d="M99.1343 59.9937C100.241 59.3803 101.753 58.5391 101.753 56.0884H99.9185C99.9185 57.4577 99.2513 57.8276 98.2425 58.3937C97.1358 59.0071 95.6243 59.8483 95.6243 62.2989H97.4583C97.4583 60.9297 98.1255 60.5597 99.1343 59.9937Z" fill="#FF1700"/>
<path d="M102.303 59.4277C102.303 60.7969 101.636 61.1669 100.627 61.7329C99.5201 62.3464 98.0085 63.1875 98.0085 65.6382H99.8426C99.8426 64.269 100.51 63.899 101.519 63.333C102.625 62.7195 104.137 61.8784 104.137 59.4277H102.303Z" fill="#FF1700"/>
</g>
<defs>
<clipPath id="clip0_1_7">
<rect width="290" height="69.13" fill="white" transform="translate(0 0.25)"/>
</clipPath>
</defs>
</svg>
