<svg width="348" height="349" viewBox="0 0 348 349" fill="none" xmlns="http://www.w3.org/2000/svg">
<g clip-path="url(#clip0_1_49)">
<path d="M162.603 347.998L157.458 347.427L152.494 336.303L152.363 336.289L151.196 346.733L146.16 346.177L148.24 327.572L153.595 328.165L158.414 338.927L158.523 338.942L159.654 328.844L164.69 329.401L162.611 348.006L162.603 347.998Z" fill="#323232"/>
<path d="M140.384 345.071L127.411 342.05L128.411 337.778L136.448 339.65L137.122 336.759L129.868 335.067L130.767 331.237L138.021 332.921L138.717 329.95L130.412 328.02L131.412 323.748L144.652 326.828L140.391 345.057L140.384 345.071Z" fill="#323232"/>
<path d="M122.904 341.153L118.033 339.253L120.005 327.616L119.802 327.536L112.787 337.207L107.967 335.328L109.388 323.481L109.214 323.416L102.72 333.289L97.8793 331.403L109.163 315.704L114.055 317.612L112.714 330.355L120.396 320.084L125.266 321.985L122.904 341.161V341.153Z" fill="#323232"/>
<path d="M88.1101 311.634L87.1608 325.454L82.3197 322.332L83.2256 314.345L76.2901 318.436L71.449 315.313L83.6966 308.794L87.2985 303.25L91.712 306.098L88.1101 311.642V311.634Z" fill="#323232"/>
<path d="M75.4059 306.604C71.8838 310.81 66.5644 311.75 62.1582 308.085C57.7736 304.435 57.7447 299.051 61.2595 294.837C64.7599 290.652 70.1228 289.669 74.5073 293.319C78.9135 296.983 78.9135 302.412 75.4059 306.604ZM71.7099 296.665C69.6082 294.916 67.1732 295.957 65.3034 298.19C63.3974 300.467 62.8611 302.983 64.9628 304.732C67.079 306.495 69.4705 305.52 71.3765 303.243C73.2463 301.002 73.8333 298.429 71.7099 296.665Z" fill="#323232"/>
<path d="M51.4903 298.32L46.026 292.473C42.3879 288.577 42.9677 285.079 45.6926 282.549C47.5551 280.814 49.8815 280.012 52.3672 281.06L54.5124 274.1L57.933 277.757L55.9111 283.908L57.6069 285.729L61.7668 281.862L65.2236 285.563L51.4903 298.32ZM52.4904 286.683C51.3019 285.411 50.1569 285.563 49.28 286.38C48.4031 287.197 48.1639 288.324 49.3524 289.596L51.2512 291.635L54.3892 288.722L52.4904 286.683Z" fill="#323232"/>
<path d="M37.5251 282.947L34.561 278.848L40.9747 274.23L30.8287 273.68L27.3501 268.867L38.0614 269.64L42.1343 257.309L45.5259 261.993L42.7938 269.958L46.555 270.218L49.7945 267.891L52.7586 271.989L37.5396 282.939L37.5251 282.947Z" fill="#323232"/>
<path d="M29.2127 253.753C23.9078 256.319 19.0812 254.909 16.5881 249.785C14.7184 245.939 15.1242 241.812 19.6972 239.333L21.8641 243.785C20.0378 245.173 19.9436 246.706 20.6031 248.05C21.893 250.695 24.618 250.175 26.9298 249.055C29.2489 247.934 31.4013 246.178 30.0751 243.46C29.4228 242.116 28.1618 241.234 25.908 241.819L23.7411 237.367C28.5242 235.322 32.0463 237.541 33.945 241.436C36.4163 246.51 34.5393 251.165 29.2054 253.746L29.2127 253.753Z" fill="#323232"/>
<path d="M11.6311 237.909L9.84827 233.175L27.4226 226.59L29.2054 231.324L11.6311 237.909Z" fill="#323232"/>
<path d="M11.3413 223.439L12.7617 228.404L8.45694 229.633L4.22461 214.852L8.52941 213.623L9.94985 218.589L23.6904 214.671L25.0819 219.528L11.3413 223.446V223.439Z" fill="#323232"/>
<path d="M14.2039 202.391L3.25344 210.906L2.35479 205.224L8.9207 200.562L1.23873 198.141L0.340088 192.46L13.3849 197.209L19.9291 196.182L20.748 201.357L14.2039 202.384V202.391Z" fill="#323232"/>
<path d="M11.334 172.792C9.96431 172.749 8.84825 171.564 8.89173 170.176C8.93522 168.81 10.1238 167.697 11.4862 167.74C12.8777 167.783 13.9937 168.969 13.9575 170.335C13.914 171.723 12.7255 172.843 11.334 172.792Z" fill="#323232"/>
<path d="M1.73148 146.671L2.34024 143.736L18.2912 137.672L18.3057 137.592L4.20276 134.701L4.76803 131.976L23.154 135.749L22.5235 138.785L6.71751 144.799V144.849L20.6755 147.719L20.1102 150.444L1.72424 146.671H1.73148Z" fill="#323232"/>
<path d="M15.03 129.627C9.29027 127.676 7.07265 123.136 8.7105 118.351C10.3339 113.595 14.8706 111.348 20.6103 113.292C26.35 115.236 28.5894 119.79 26.966 124.546C25.3354 129.331 20.777 131.571 15.0373 129.62L15.03 129.627ZM24.6759 123.78C25.7848 120.542 24.1034 117.484 19.6899 115.981C15.2764 114.477 12.1022 115.887 10.9934 119.132C9.87729 122.399 11.5296 125.442 15.9432 126.946C20.3567 128.449 23.5599 127.047 24.6687 123.78H24.6759Z" fill="#323232"/>
<path d="M12.9718 107.22L14.2401 104.597L31.0317 106.237L31.1041 106.093L19.3275 94.0437L20.5958 91.42L34.4596 105.869L32.9522 108.998L12.9791 107.235L12.9718 107.22Z" fill="#323232"/>
<path d="M22.9947 87.3869L29.4736 77.0726L31.5391 78.3664L26.5458 86.3244L31.3144 89.3023L35.8801 82.031L37.7643 83.2091L33.1986 90.4805L38.3079 93.6752L43.4461 85.4932L45.5115 86.787L38.8949 97.3253L22.9874 87.3869H22.9947Z" fill="#323232"/>
<path d="M32.4014 72.6274L34.561 69.9675L50.2148 74.5717L42.4604 60.2459L44.62 57.586L59.2013 69.382L57.4475 71.5432L46.7435 62.8841L46.6782 62.9636L53.7877 76.0462L52.4035 77.752L38.0831 73.5381L38.0324 73.6032L48.7364 82.2623L46.9826 84.4234L32.4014 72.6346V72.6274Z" fill="#323232"/>
<path d="M49.0481 53.1191L54.2443 48.204C57.1432 45.4646 59.7376 45.5875 61.6001 47.5463C62.9626 48.9847 63.1873 50.5748 62.3901 52.1433C64.6222 50.9507 66.7601 51.182 68.5139 53.0251C70.6518 55.273 70.6808 58.4533 67.2819 61.677L61.9697 66.7004L49.0554 53.1191H49.0481ZM59.3318 53.8274C60.774 52.4685 60.9624 51.0302 59.7594 49.7725C58.5998 48.551 57.1721 48.6811 55.73 50.0472L52.6934 52.9167L56.288 56.6969L59.3245 53.8274H59.3318ZM65.5208 60.0651C67.5645 58.1353 67.5355 56.2777 66.2456 54.9188C64.9556 53.56 63.1365 53.4732 61.0928 55.4103L57.9186 58.4099L62.3466 63.0647L65.5208 60.0651Z" fill="#323232"/>
<path d="M63.2089 40.1955L72.8838 32.7868L74.3695 34.7167L66.905 40.434L70.3329 44.8864L77.1597 39.6606L78.5149 41.4242L71.6881 46.6501L75.3624 51.4205L83.0371 45.5442L84.5227 47.474L74.6304 55.0417L63.2017 40.1955H63.2089Z" fill="#323232"/>
<path d="M77.0438 29.9101L83.0734 26.2094C86.9796 23.817 90.0741 24.6482 91.9729 27.7201C93.4223 30.0692 93.3571 32.5194 91.3641 34.5939L98.8214 38.5259L96.4443 39.9859L89.3711 36.2274L85.6244 38.5259L89.2479 44.4022L86.8709 45.8623L77.0365 29.9174L77.0438 29.9101ZM87.9145 34.2614C90.219 32.8447 90.6901 31.0522 89.5523 29.209C88.3855 27.3153 86.5737 26.925 84.2619 28.3417L80.6963 30.5245L84.3489 36.4442L87.9145 34.2614Z" fill="#323232"/>
<path d="M108.772 24.3229C110.605 21.7786 112.04 20.0945 111.134 17.9478C110.33 15.989 108.518 15.6276 106.742 16.3794C104.916 17.1527 103.931 18.8152 104.916 21.1281L105.061 21.4751L102.641 22.5014L102.445 22.0316C101.14 18.9525 102.061 15.8589 105.866 14.2543C109.467 12.7292 112.366 13.9146 113.576 16.7769C114.895 19.8777 113.134 22.2485 111.33 24.6409C109.38 27.3225 108.54 29.1006 109.257 30.7991L109.308 30.922L118.07 27.2141L118.961 29.3102L107.358 34.218L107.054 33.5024C105.742 30.4233 106.076 27.9875 108.772 24.3229Z" fill="#323232"/>
<path d="M118.345 20.5933L125.621 18.1792L126.273 20.1307L118.997 22.5448L118.345 20.5933Z" fill="#323232"/>
<path d="M129.368 19.444L131.846 18.8513C132.499 21.4462 134.513 22.3641 136.912 21.7931C139.079 21.2727 140.681 19.6825 140.144 17.4491C139.666 15.4759 137.869 14.529 135.028 15.2084L134.144 15.4181L133.665 13.4448L134.419 13.2641C137.369 12.5558 137.709 10.8861 137.398 9.60676C136.97 7.83591 135.405 7.17094 133.477 7.63353C131.6 8.08166 130.216 9.43329 130.861 12.1366L128.382 12.7293C127.447 8.85505 129.194 6.26021 132.977 5.35672C136.63 4.48214 139.202 5.89882 139.855 8.6093C140.362 10.7126 139.405 12.4546 137.796 13.3364C139.55 13.1918 142.123 14.0086 142.833 16.9721C143.609 20.1957 141.492 23.0941 137.347 24.0844C132.97 25.1324 130.245 23.1158 129.368 19.4513V19.444Z" fill="#323232"/>
<path d="M160.574 12.9605C160.487 11.6016 161.56 10.3801 162.951 10.2861C164.314 10.1994 165.538 11.2691 165.633 12.628C165.72 14.0158 164.647 15.2373 163.285 15.324C161.893 15.4108 160.668 14.341 160.574 12.9532V12.9605Z" fill="#323232"/>
<path d="M185.664 0.99823L190.802 1.59093L195.723 12.7365L195.853 12.7509L197.056 2.30649L202.093 2.88473L199.948 21.4823L194.592 20.8679L189.816 10.091L189.708 10.0766L188.541 20.174L183.504 19.5958L185.649 0.99823H185.664Z" fill="#323232"/>
<path d="M207.862 3.99789L220.834 7.06255L219.819 11.3343L211.782 9.43332L211.094 12.3245L218.348 14.0375L217.442 17.8611L210.188 16.1481L209.485 19.1116L217.783 21.0704L216.768 25.3421L203.535 22.2124L207.869 3.99066L207.862 3.99789Z" fill="#323232"/>
<path d="M225.313 7.98041L230.176 9.89582L228.161 21.5256L228.357 21.6051L235.408 11.963L240.22 13.8568L238.756 25.7034L238.93 25.7757L245.453 15.924L250.294 17.8321L238.959 33.4879L234.075 31.5653L235.459 18.8296L227.741 29.0716L222.878 27.1562L225.313 7.98764V7.98041Z" fill="#323232"/>
<path d="M260.019 37.6368L261.019 23.8242L265.846 26.9683L264.911 34.948L271.861 30.8859L276.688 34.0301L264.418 40.5063L260.802 46.0357L256.403 43.1734L260.019 37.644V37.6368Z" fill="#323232"/>
<path d="M272.68 42.6963C276.217 38.4969 281.543 37.5789 285.935 41.2652C290.305 44.9298 290.32 50.3218 286.783 54.5213C283.261 58.6991 277.905 59.6531 273.528 55.9886C269.136 52.3095 269.158 46.8741 272.673 42.6963H272.68ZM276.347 52.6493C278.441 54.4056 280.884 53.3793 282.761 51.1458C284.674 48.8763 285.218 46.3609 283.123 44.6045C281.007 42.8337 278.615 43.8022 276.702 46.0718C274.825 48.3052 274.231 50.8784 276.34 52.6493H276.347Z" fill="#323232"/>
<path d="M296.596 51.0808L302.038 56.9571C305.662 60.8674 305.067 64.3658 302.328 66.8883C300.458 68.6158 298.132 69.4109 295.646 68.3484L293.472 75.3017L290.066 71.6299L292.11 65.4861L290.414 63.6574L286.239 67.5099L282.797 63.7947L296.581 51.0808H296.596ZM295.552 62.7178C296.733 63.9971 297.878 63.8526 298.77 63.0358C299.654 62.2191 299.893 61.0915 298.704 59.8121L296.813 57.7666L293.66 60.6723L295.552 62.7178Z" fill="#323232"/>
<path d="M310.496 66.5125L313.445 70.6252L307.01 75.215L317.156 75.8005L320.62 80.6287L309.916 79.8192L305.792 92.1356L302.422 87.4375L305.191 79.4795L301.429 79.2048L298.183 81.525L295.233 77.4123L310.503 66.5125H310.496Z" fill="#323232"/>
<path d="M318.685 95.7135C323.997 93.162 328.824 94.5932 331.295 99.725C333.15 103.578 332.73 107.697 328.15 110.162L326.004 105.703C327.838 104.322 327.932 102.79 327.28 101.438C326.004 98.7854 323.272 99.2986 320.953 100.404C318.634 101.51 316.474 103.267 317.786 105.992C318.438 107.343 319.692 108.218 321.946 107.647L324.091 112.107C319.301 114.138 315.786 111.904 313.902 108.001C311.452 102.913 313.344 98.2722 318.685 95.7063V95.7135Z" fill="#323232"/>
<path d="M336.223 111.666L337.984 116.4L320.388 122.912L318.627 118.178L336.223 111.666Z" fill="#323232"/>
<path d="M336.455 126.107L335.049 121.141L339.361 119.934L343.542 134.737L339.23 135.944L337.832 130.979L324.077 134.838L322.7 129.974L336.455 126.114V126.107Z" fill="#323232"/>
<path d="M333.52 147.155L344.506 138.684L345.383 144.365L338.796 148.998L346.47 151.448L347.347 157.129L334.317 152.33L327.773 153.335L326.975 148.152L333.52 147.148V147.155Z" fill="#323232"/>
<path d="M336.266 176.717C337.636 176.761 338.752 177.946 338.709 179.334C338.665 180.7 337.477 181.813 336.114 181.77C334.723 181.726 333.607 180.541 333.643 179.175C333.686 177.787 334.875 176.674 336.266 176.717Z" fill="#323232"/>
<path d="M345.789 202.911L345.173 205.846L329.2 211.86L329.186 211.939L343.282 214.881L342.709 217.606L324.338 213.768L324.975 210.732L340.803 204.769L340.818 204.718L326.852 201.805L327.425 199.081L345.804 202.919L345.789 202.911Z" fill="#323232"/>
<path d="M332.418 219.897C338.151 221.863 340.347 226.409 338.701 231.187C337.064 235.943 332.52 238.169 326.787 236.203C321.055 234.237 318.83 229.684 320.475 224.928C322.127 220.15 326.693 217.931 332.418 219.897ZM322.758 225.708C321.642 228.946 323.309 232.004 327.715 233.522C332.121 235.04 335.303 233.637 336.419 230.407C337.542 227.147 335.904 224.089 331.491 222.579C327.077 221.061 323.881 222.456 322.751 225.716L322.758 225.708Z" fill="#323232"/>
<path d="M334.389 242.347L333.114 244.971L316.329 243.265L316.257 243.41L327.983 255.509L326.707 258.133L312.902 243.634L314.423 240.504L334.389 242.354V242.347Z" fill="#323232"/>
<path d="M324.287 262.13L317.772 272.415L315.714 271.114L320.736 263.178L315.974 260.178L311.38 267.435L309.495 266.25L314.09 258.993L308.988 255.777L303.821 263.937L301.756 262.636L308.416 252.127L324.28 262.123L324.287 262.13Z" fill="#323232"/>
<path d="M314.829 276.846L312.655 279.499L297.016 274.83L304.712 289.184L302.538 291.837L288.008 279.99L289.776 277.836L300.444 286.532L300.509 286.445L293.45 273.341L294.842 271.642L309.14 275.907L309.191 275.842L298.523 267.146L300.284 264.992L314.815 276.839L314.829 276.846Z" fill="#323232"/>
<path d="M298.11 296.297L292.9 301.19C289.993 303.922 287.399 303.785 285.536 301.819C284.174 300.38 283.957 298.783 284.761 297.215C282.529 298.393 280.391 298.161 278.644 296.311C276.514 294.056 276.492 290.876 279.913 287.666L285.239 282.657L298.11 296.282V296.297ZM281.666 289.3C279.616 291.223 279.637 293.08 280.927 294.446C282.217 295.812 284.036 295.899 286.08 293.976L289.261 290.991L284.848 286.322L281.666 289.307V289.3ZM287.834 295.559C286.392 296.918 286.196 298.349 287.392 299.614C288.551 300.843 289.979 300.713 291.421 299.354L294.465 296.492L290.878 292.697L287.834 295.559Z" fill="#323232"/>
<path d="M283.906 309.177L274.195 316.549L272.716 314.612L280.203 308.924L276.789 304.457L269.941 309.661L268.593 307.898L275.441 302.693L271.789 297.909L264.085 303.756L262.607 301.819L272.528 294.287L283.899 309.184L283.906 309.177Z" fill="#323232"/>
<path d="M270.02 319.404L263.976 323.076C260.063 325.454 256.968 324.609 255.084 321.529C253.649 319.18 253.714 316.723 255.722 314.663L248.279 310.702L250.663 309.256L257.722 313.044L261.476 310.76L257.874 304.869L260.251 303.423L270.02 319.404ZM259.171 315.01C256.86 316.419 256.388 318.205 257.512 320.055C258.671 321.949 260.483 322.346 262.795 320.944L266.368 318.776L262.737 312.841L259.164 315.01H259.171Z" fill="#323232"/>
<path d="M238.292 324.861C236.451 327.399 235.002 329.083 235.908 331.222C236.705 333.181 238.517 333.549 240.3 332.805C242.133 332.039 243.119 330.376 242.14 328.056L241.996 327.709L244.416 326.697L244.612 327.167C245.909 330.254 244.967 333.34 241.162 334.937C237.553 336.448 234.661 335.248 233.458 332.386C232.154 329.278 233.922 326.914 235.734 324.529C237.691 321.855 238.546 320.077 237.828 318.371L237.778 318.248L228.994 321.92L228.11 319.824L239.734 314.959L240.039 315.675C241.336 318.761 240.995 321.19 238.285 324.847L238.292 324.861Z" fill="#323232"/>
<path d="M228.712 328.562L221.428 330.955L220.783 328.996L228.067 326.603L228.712 328.562Z" fill="#323232"/>
<path d="M217.674 329.668L215.196 330.254C214.551 327.659 212.543 326.726 210.144 327.29C207.978 327.803 206.369 329.386 206.898 331.627C207.362 333.607 209.159 334.554 212.007 333.889L212.891 333.68L213.355 335.66L212.601 335.841C209.652 336.535 209.304 338.212 209.608 339.484C210.029 341.255 211.594 341.927 213.522 341.471C215.399 341.031 216.79 339.686 216.152 336.976L218.631 336.39C219.551 340.272 217.79 342.852 214.007 343.741C210.355 344.601 207.782 343.17 207.144 340.467C206.644 338.356 207.615 336.621 209.224 335.747C207.463 335.884 204.905 335.06 204.202 332.097C203.441 328.873 205.564 325.982 209.717 325.006C214.101 323.973 216.812 326.004 217.681 329.668H217.674Z" fill="#323232"/>
<path d="M186.425 336.036C186.512 337.395 185.425 338.616 184.033 338.703C182.671 338.79 181.446 337.706 181.366 336.347C181.279 334.959 182.366 333.737 183.729 333.658C185.12 333.571 186.345 334.648 186.425 336.036Z" fill="#323232"/>
<path d="M155.827 154.564C176.453 143.129 204.716 127.473 204.716 81.8936H170.503C170.503 107.394 158.052 114.289 139.217 124.734C118.591 136.168 90.3278 151.824 90.3278 197.404H124.541C124.541 171.903 136.985 165.008 155.827 154.564Z" fill="#FF3C00"/>
<path d="M215.044 144.09C215.044 169.591 202.6 176.486 183.758 186.93C163.132 198.365 134.869 214.021 134.869 259.6H169.082C169.082 234.1 181.533 227.205 200.375 216.76C221.001 205.326 249.265 189.67 249.265 144.09H215.051H215.044Z" fill="#FF3C00"/>
</g>
<defs>
<clipPath id="clip0_1_49">
<rect width="347" height="348" fill="white" transform="translate(0.340088 0.0499878)"/>
</clipPath>
</defs>
</svg>
